<?xml version="1.0" encoding="utf-8" standalone="no"?>
<!DOCTYPE svg PUBLIC "-//W3C//DTD SVG 1.1//EN"
  "http://www.w3.org/Graphics/SVG/1.1/DTD/svg11.dtd">
<svg xmlns:xlink="http://www.w3.org/1999/xlink" width="352.669375pt" height="320.253212pt" viewBox="0 0 352.669375 320.253212" xmlns="http://www.w3.org/2000/svg" version="1.1">
 <metadata>
  <rdf:RDF xmlns:dc="http://purl.org/dc/elements/1.1/" xmlns:cc="http://creativecommons.org/ns#" xmlns:rdf="http://www.w3.org/1999/02/22-rdf-syntax-ns#">
   <cc:Work>
    <dc:type rdf:resource="http://purl.org/dc/dcmitype/StillImage"/>
    <dc:date>2025-08-28T10:27:09.022830</dc:date>
    <dc:format>image/svg+xml</dc:format>
    <dc:creator>
     <cc:Agent>
      <dc:title>Matplotlib v3.10.1, https://matplotlib.org/</dc:title>
     </cc:Agent>
    </dc:creator>
   </cc:Work>
  </rdf:RDF>
 </metadata>
 <defs>
  <style type="text/css">*{stroke-linejoin: round; stroke-linecap: butt}</style>
 </defs>
 <g id="figure_1">
  <g id="patch_1">
   <path d="M 0 320.253212 
L 352.669375 320.253212 
L 352.669375 0 
L 0 0 
L 0 320.253212 
z
" style="fill: none; opacity: 0"/>
  </g>
  <g id="axes_1">
   <g id="patch_2">
    <path d="M 24.749375 295.503837 
L 345.469375 295.503837 
L 345.469375 25.3575 
L 24.749375 25.3575 
L 24.749375 295.503837 
z
" style="fill: none; opacity: 0"/>
   </g>
   <g id="PathCollection_1"/>
   <g id="patch_3">
    <path d="M 70.169232 262.663342 
C 72.895668 262.663342 75.510803 261.580117 77.438685 259.652236 
C 79.366566 257.724354 80.449791 255.109219 80.449791 252.382783 
C 80.449791 249.656347 79.366566 247.041212 77.438685 245.11333 
C 75.510803 243.185449 72.895668 242.102224 70.169232 242.102224 
C 67.442796 242.102224 64.82766 243.185449 62.899779 245.11333 
C 60.971898 247.041212 59.888673 249.656347 59.888673 252.382783 
C 59.888673 255.109219 60.971898 257.724354 62.899779 259.652236 
C 64.82766 261.580117 67.442796 262.663342 70.169232 262.663342 
z
" clip-path="url(#p39c7a7f0ec)" style="fill: #1b9e77; opacity: 0.8"/>
   </g>
   <g id="patch_4">
    <path d="M 70.169232 272.943901 
C 75.622104 272.943901 80.852375 270.777452 84.708138 266.921689 
C 88.5639 263.065926 90.73035 257.835655 90.73035 252.382783 
C 90.73035 246.929911 88.5639 241.69964 84.708138 237.843877 
C 80.852375 233.988114 75.622104 231.821665 70.169232 231.821665 
C 64.71636 231.821665 59.486089 233.988114 55.630326 237.843877 
C 51.774563 241.69964 49.608114 246.929911 49.608114 252.382783 
C 49.608114 257.835655 51.774563 263.065926 55.630326 266.921689 
C 59.486089 270.777452 64.71636 272.943901 70.169232 272.943901 
z
" clip-path="url(#p39c7a7f0ec)" style="fill: #1b9e77; opacity: 0.528"/>
   </g>
   <g id="patch_5">
    <path d="M 70.169232 283.224458 
C 78.34854 283.224458 86.193945 279.974785 91.977589 274.191141 
C 97.761233 268.407497 101.010907 260.562091 101.010907 252.382783 
C 101.010907 244.203475 97.761233 236.358069 91.977589 230.574425 
C 86.193945 224.790781 78.34854 221.541108 70.169232 221.541108 
C 61.989924 221.541108 54.144518 224.790781 48.360874 230.574425 
C 42.57723 236.358069 39.327557 244.203475 39.327557 252.382783 
C 39.327557 260.562091 42.57723 268.407497 48.360874 274.191141 
C 54.144518 279.974785 61.989924 283.224458 70.169232 283.224458 
z
" clip-path="url(#p39c7a7f0ec)" style="fill: #1b9e77; opacity: 0.264"/>
   </g>
   <g id="PathCollection_2">
    <defs>
     <path id="m849ea52605" d="M 0 1.118034 
C 0.296506 1.118034 0.580908 1.000231 0.790569 0.790569 
C 1.000231 0.580908 1.118034 0.296506 1.118034 0 
C 1.118034 -0.296506 1.000231 -0.580908 0.790569 -0.790569 
C 0.580908 -1.000231 0.296506 -1.118034 0 -1.118034 
C -0.296506 -1.118034 -0.580908 -1.000231 -0.790569 -0.790569 
C -1.000231 -0.580908 -1.118034 -0.296506 -1.118034 0 
C -1.118034 0.296506 -1.000231 0.580908 -0.790569 0.790569 
C -0.580908 1.000231 -0.296506 1.118034 0 1.118034 
z
" style="stroke: #000000"/>
    </defs>
    <g clip-path="url(#p39c7a7f0ec)">
     <use xlink:href="#m849ea52605" x="70.169232" y="252.382783" style="stroke: #000000"/>
    </g>
   </g>
   <g id="patch_6">
    <path d="M 208.097404 170.711227 
C 210.82384 170.711227 213.438975 169.628003 215.366856 167.700121 
C 217.294738 165.77224 218.377962 163.157105 218.377962 160.430669 
C 218.377962 157.704232 217.294738 155.089097 215.366856 153.161216 
C 213.438975 151.233334 210.82384 150.15011 208.097404 150.15011 
C 205.370968 150.15011 202.755832 151.233334 200.827951 153.161216 
C 198.900069 155.089097 197.816845 157.704232 197.816845 160.430669 
C 197.816845 163.157105 198.900069 165.77224 200.827951 167.700121 
C 202.755832 169.628003 205.370968 170.711227 208.097404 170.711227 
z
" clip-path="url(#p39c7a7f0ec)" style="fill: #7570b3; opacity: 0.8"/>
   </g>
   <g id="patch_7">
    <path d="M 208.097404 180.991786 
C 213.550276 180.991786 218.780546 178.825337 222.636309 174.969574 
C 226.492072 171.113811 228.658521 165.883541 228.658521 160.430669 
C 228.658521 154.977796 226.492072 149.747526 222.636309 145.891763 
C 218.780546 142.036 213.550276 139.869551 208.097404 139.869551 
C 202.644531 139.869551 197.414261 142.036 193.558498 145.891763 
C 189.702735 149.747526 187.536286 154.977796 187.536286 160.430669 
C 187.536286 165.883541 189.702735 171.113811 193.558498 174.969574 
C 197.414261 178.825337 202.644531 180.991786 208.097404 180.991786 
z
" clip-path="url(#p39c7a7f0ec)" style="fill: #7570b3; opacity: 0.528"/>
   </g>
   <g id="patch_8">
    <path d="M 208.097404 191.272344 
C 216.276711 191.272344 224.122117 188.02267 229.905761 182.239026 
C 235.689405 176.455382 238.939079 168.609976 238.939079 160.430669 
C 238.939079 152.251361 235.689405 144.405955 229.905761 138.622311 
C 224.122117 132.838667 216.276711 129.588993 208.097404 129.588993 
C 199.918096 129.588993 192.07269 132.838667 186.289046 138.622311 
C 180.505402 144.405955 177.255729 152.251361 177.255729 160.430669 
C 177.255729 168.609976 180.505402 176.455382 186.289046 182.239026 
C 192.07269 188.02267 199.918096 191.272344 208.097404 191.272344 
z
" clip-path="url(#p39c7a7f0ec)" style="fill: #7570b3; opacity: 0.264"/>
   </g>
   <g id="PathCollection_3">
    <g clip-path="url(#p39c7a7f0ec)">
     <use xlink:href="#m849ea52605" x="208.097404" y="160.430669" style="stroke: #000000"/>
    </g>
   </g>
   <g id="patch_9">
    <path d="M 300.049518 216.687285 
C 302.775954 216.687285 305.39109 215.60406 307.318971 213.676179 
C 309.246852 211.748297 310.330077 209.133162 310.330077 206.406726 
C 310.330077 203.68029 309.246852 201.065154 307.318971 199.137273 
C 305.39109 197.209391 302.775954 196.126167 300.049518 196.126167 
C 297.323082 196.126167 294.707947 197.209391 292.780065 199.137273 
C 290.852184 201.065154 289.768959 203.68029 289.768959 206.406726 
C 289.768959 209.133162 290.852184 211.748297 292.780065 213.676179 
C 294.707947 215.60406 297.323082 216.687285 300.049518 216.687285 
z
" clip-path="url(#p39c7a7f0ec)" style="fill: #e6ab02; opacity: 0.8"/>
   </g>
   <g id="patch_10">
    <path d="M 300.049518 226.967843 
C 305.50239 226.967843 310.732661 224.801394 314.588424 220.945631 
C 318.444187 217.089869 320.610636 211.859598 320.610636 206.406726 
C 320.610636 200.953854 318.444187 195.723583 314.588424 191.86782 
C 310.732661 188.012057 305.50239 185.845608 300.049518 185.845608 
C 294.596646 185.845608 289.366375 188.012057 285.510612 191.86782 
C 281.65485 195.723583 279.4884 200.953854 279.4884 206.406726 
C 279.4884 211.859598 281.65485 217.089869 285.510612 220.945631 
C 289.366375 224.801394 294.596646 226.967843 300.049518 226.967843 
z
" clip-path="url(#p39c7a7f0ec)" style="fill: #e6ab02; opacity: 0.528"/>
   </g>
   <g id="patch_11">
    <path d="M 300.049518 237.248401 
C 308.228826 237.248401 316.074232 233.998727 321.857876 228.215083 
C 327.64152 222.431439 330.891193 214.586034 330.891193 206.406726 
C 330.891193 198.227418 327.64152 190.382012 321.857876 184.598368 
C 316.074232 178.814724 308.228826 175.565051 300.049518 175.565051 
C 291.87021 175.565051 284.024805 178.814724 278.241161 184.598368 
C 272.457517 190.382012 269.207843 198.227418 269.207843 206.406726 
C 269.207843 214.586034 272.457517 222.431439 278.241161 228.215083 
C 284.024805 233.998727 291.87021 237.248401 300.049518 237.248401 
z
" clip-path="url(#p39c7a7f0ec)" style="fill: #e6ab02; opacity: 0.264"/>
   </g>
   <g id="PathCollection_4">
    <g clip-path="url(#p39c7a7f0ec)">
     <use xlink:href="#m849ea52605" x="300.049518" y="206.406726" style="stroke: #000000"/>
    </g>
   </g>
   <g id="patch_12">
    <path d="M 70.169232 78.759113 
C 72.895668 78.759113 75.510803 77.675888 77.438685 75.748007 
C 79.366566 73.820125 80.449791 71.20499 80.449791 68.478554 
C 80.449791 65.752118 79.366566 63.136983 77.438685 61.209101 
C 75.510803 59.28122 72.895668 58.197995 70.169232 58.197995 
C 67.442796 58.197995 64.82766 59.28122 62.899779 61.209101 
C 60.971898 63.136983 59.888673 65.752118 59.888673 68.478554 
C 59.888673 71.20499 60.971898 73.820125 62.899779 75.748007 
C 64.82766 77.675888 67.442796 78.759113 70.169232 78.759113 
z
" clip-path="url(#p39c7a7f0ec)" style="fill: #666666; opacity: 0.8"/>
   </g>
   <g id="patch_13">
    <path d="M 70.169232 89.039672 
C 75.622104 89.039672 80.852375 86.873223 84.708138 83.01746 
C 88.5639 79.161697 90.73035 73.931426 90.73035 68.478554 
C 90.73035 63.025682 88.5639 57.795411 84.708138 53.939648 
C 80.852375 50.083885 75.622104 47.917436 70.169232 47.917436 
C 64.71636 47.917436 59.486089 50.083885 55.630326 53.939648 
C 51.774563 57.795411 49.608114 63.025682 49.608114 68.478554 
C 49.608114 73.931426 51.774563 79.161697 55.630326 83.01746 
C 59.486089 86.873223 64.71636 89.039672 70.169232 89.039672 
z
" clip-path="url(#p39c7a7f0ec)" style="fill: #666666; opacity: 0.528"/>
   </g>
   <g id="patch_14">
    <path d="M 70.169232 99.320229 
C 78.34854 99.320229 86.193945 96.070556 91.977589 90.286912 
C 97.761233 84.503268 101.010907 76.657862 101.010907 68.478554 
C 101.010907 60.299246 97.761233 52.45384 91.977589 46.670196 
C 86.193945 40.886552 78.34854 37.636879 70.169232 37.636879 
C 61.989924 37.636879 54.144518 40.886552 48.360874 46.670196 
C 42.57723 52.45384 39.327557 60.299246 39.327557 68.478554 
C 39.327557 76.657862 42.57723 84.503268 48.360874 90.286912 
C 54.144518 96.070556 61.989924 99.320229 70.169232 99.320229 
z
" clip-path="url(#p39c7a7f0ec)" style="fill: #666666; opacity: 0.264"/>
   </g>
   <g id="PathCollection_5">
    <g clip-path="url(#p39c7a7f0ec)">
     <use xlink:href="#m849ea52605" x="70.169232" y="68.478554" style="stroke: #000000"/>
    </g>
   </g>
   <g id="matplotlib.axis_1">
    <g id="text_1">
     <!-- Latent Dimension 1 -->
     <g transform="translate(116.577188 310.14165) scale(0.14 -0.14)">
      <defs>
       <path id="DejaVuSans-4c" d="M 628 4666 
L 1259 4666 
L 1259 531 
L 3531 531 
L 3531 0 
L 628 0 
L 628 4666 
z
" transform="scale(0.015625)"/>
       <path id="DejaVuSans-61" d="M 2194 1759 
Q 1497 1759 1228 1600 
Q 959 1441 959 1056 
Q 959 750 1161 570 
Q 1363 391 1709 391 
Q 2188 391 2477 730 
Q 2766 1069 2766 1631 
L 2766 1759 
L 2194 1759 
z
M 3341 1997 
L 3341 0 
L 2766 0 
L 2766 531 
Q 2569 213 2275 61 
Q 1981 -91 1556 -91 
Q 1019 -91 701 211 
Q 384 513 384 1019 
Q 384 1609 779 1909 
Q 1175 2209 1959 2209 
L 2766 2209 
L 2766 2266 
Q 2766 2663 2505 2880 
Q 2244 3097 1772 3097 
Q 1472 3097 1187 3025 
Q 903 2953 641 2809 
L 641 3341 
Q 956 3463 1253 3523 
Q 1550 3584 1831 3584 
Q 2591 3584 2966 3190 
Q 3341 2797 3341 1997 
z
" transform="scale(0.015625)"/>
       <path id="DejaVuSans-74" d="M 1172 4494 
L 1172 3500 
L 2356 3500 
L 2356 3053 
L 1172 3053 
L 1172 1153 
Q 1172 725 1289 603 
Q 1406 481 1766 481 
L 2356 481 
L 2356 0 
L 1766 0 
Q 1100 0 847 248 
Q 594 497 594 1153 
L 594 3053 
L 172 3053 
L 172 3500 
L 594 3500 
L 594 4494 
L 1172 4494 
z
" transform="scale(0.015625)"/>
       <path id="DejaVuSans-65" d="M 3597 1894 
L 3597 1613 
L 953 1613 
Q 991 1019 1311 708 
Q 1631 397 2203 397 
Q 2534 397 2845 478 
Q 3156 559 3463 722 
L 3463 178 
Q 3153 47 2828 -22 
Q 2503 -91 2169 -91 
Q 1331 -91 842 396 
Q 353 884 353 1716 
Q 353 2575 817 3079 
Q 1281 3584 2069 3584 
Q 2775 3584 3186 3129 
Q 3597 2675 3597 1894 
z
M 3022 2063 
Q 3016 2534 2758 2815 
Q 2500 3097 2075 3097 
Q 1594 3097 1305 2825 
Q 1016 2553 972 2059 
L 3022 2063 
z
" transform="scale(0.015625)"/>
       <path id="DejaVuSans-6e" d="M 3513 2113 
L 3513 0 
L 2938 0 
L 2938 2094 
Q 2938 2591 2744 2837 
Q 2550 3084 2163 3084 
Q 1697 3084 1428 2787 
Q 1159 2491 1159 1978 
L 1159 0 
L 581 0 
L 581 3500 
L 1159 3500 
L 1159 2956 
Q 1366 3272 1645 3428 
Q 1925 3584 2291 3584 
Q 2894 3584 3203 3211 
Q 3513 2838 3513 2113 
z
" transform="scale(0.015625)"/>
       <path id="DejaVuSans-20" transform="scale(0.015625)"/>
       <path id="DejaVuSans-44" d="M 1259 4147 
L 1259 519 
L 2022 519 
Q 2988 519 3436 956 
Q 3884 1394 3884 2338 
Q 3884 3275 3436 3711 
Q 2988 4147 2022 4147 
L 1259 4147 
z
M 628 4666 
L 1925 4666 
Q 3281 4666 3915 4102 
Q 4550 3538 4550 2338 
Q 4550 1131 3912 565 
Q 3275 0 1925 0 
L 628 0 
L 628 4666 
z
" transform="scale(0.015625)"/>
       <path id="DejaVuSans-69" d="M 603 3500 
L 1178 3500 
L 1178 0 
L 603 0 
L 603 3500 
z
M 603 4863 
L 1178 4863 
L 1178 4134 
L 603 4134 
L 603 4863 
z
" transform="scale(0.015625)"/>
       <path id="DejaVuSans-6d" d="M 3328 2828 
Q 3544 3216 3844 3400 
Q 4144 3584 4550 3584 
Q 5097 3584 5394 3201 
Q 5691 2819 5691 2113 
L 5691 0 
L 5113 0 
L 5113 2094 
Q 5113 2597 4934 2840 
Q 4756 3084 4391 3084 
Q 3944 3084 3684 2787 
Q 3425 2491 3425 1978 
L 3425 0 
L 2847 0 
L 2847 2094 
Q 2847 2600 2669 2842 
Q 2491 3084 2119 3084 
Q 1678 3084 1418 2786 
Q 1159 2488 1159 1978 
L 1159 0 
L 581 0 
L 581 3500 
L 1159 3500 
L 1159 2956 
Q 1356 3278 1631 3431 
Q 1906 3584 2284 3584 
Q 2666 3584 2933 3390 
Q 3200 3197 3328 2828 
z
" transform="scale(0.015625)"/>
       <path id="DejaVuSans-73" d="M 2834 3397 
L 2834 2853 
Q 2591 2978 2328 3040 
Q 2066 3103 1784 3103 
Q 1356 3103 1142 2972 
Q 928 2841 928 2578 
Q 928 2378 1081 2264 
Q 1234 2150 1697 2047 
L 1894 2003 
Q 2506 1872 2764 1633 
Q 3022 1394 3022 966 
Q 3022 478 2636 193 
Q 2250 -91 1575 -91 
Q 1294 -91 989 -36 
Q 684 19 347 128 
L 347 722 
Q 666 556 975 473 
Q 1284 391 1588 391 
Q 1994 391 2212 530 
Q 2431 669 2431 922 
Q 2431 1156 2273 1281 
Q 2116 1406 1581 1522 
L 1381 1569 
Q 847 1681 609 1914 
Q 372 2147 372 2553 
Q 372 3047 722 3315 
Q 1072 3584 1716 3584 
Q 2034 3584 2315 3537 
Q 2597 3491 2834 3397 
z
" transform="scale(0.015625)"/>
       <path id="DejaVuSans-6f" d="M 1959 3097 
Q 1497 3097 1228 2736 
Q 959 2375 959 1747 
Q 959 1119 1226 758 
Q 1494 397 1959 397 
Q 2419 397 2687 759 
Q 2956 1122 2956 1747 
Q 2956 2369 2687 2733 
Q 2419 3097 1959 3097 
z
M 1959 3584 
Q 2709 3584 3137 3096 
Q 3566 2609 3566 1747 
Q 3566 888 3137 398 
Q 2709 -91 1959 -91 
Q 1206 -91 779 398 
Q 353 888 353 1747 
Q 353 2609 779 3096 
Q 1206 3584 1959 3584 
z
" transform="scale(0.015625)"/>
       <path id="DejaVuSans-31" d="M 794 531 
L 1825 531 
L 1825 4091 
L 703 3866 
L 703 4441 
L 1819 4666 
L 2450 4666 
L 2450 531 
L 3481 531 
L 3481 0 
L 794 0 
L 794 531 
z
" transform="scale(0.015625)"/>
      </defs>
      <use xlink:href="#DejaVuSans-4c"/>
      <use xlink:href="#DejaVuSans-61" transform="translate(55.712891 0)"/>
      <use xlink:href="#DejaVuSans-74" transform="translate(116.992188 0)"/>
      <use xlink:href="#DejaVuSans-65" transform="translate(156.201172 0)"/>
      <use xlink:href="#DejaVuSans-6e" transform="translate(217.724609 0)"/>
      <use xlink:href="#DejaVuSans-74" transform="translate(281.103516 0)"/>
      <use xlink:href="#DejaVuSans-20" transform="translate(320.3125 0)"/>
      <use xlink:href="#DejaVuSans-44" transform="translate(352.099609 0)"/>
      <use xlink:href="#DejaVuSans-69" transform="translate(429.101562 0)"/>
      <use xlink:href="#DejaVuSans-6d" transform="translate(456.884766 0)"/>
      <use xlink:href="#DejaVuSans-65" transform="translate(554.296875 0)"/>
      <use xlink:href="#DejaVuSans-6e" transform="translate(615.820312 0)"/>
      <use xlink:href="#DejaVuSans-73" transform="translate(679.199219 0)"/>
      <use xlink:href="#DejaVuSans-69" transform="translate(731.298828 0)"/>
      <use xlink:href="#DejaVuSans-6f" transform="translate(759.082031 0)"/>
      <use xlink:href="#DejaVuSans-6e" transform="translate(820.263672 0)"/>
      <use xlink:href="#DejaVuSans-20" transform="translate(883.642578 0)"/>
      <use xlink:href="#DejaVuSans-31" transform="translate(915.429688 0)"/>
     </g>
    </g>
   </g>
   <g id="matplotlib.axis_2">
    <g id="text_2">
     <!-- Latent Dimension 2 -->
     <g transform="translate(17.837813 228.962856) rotate(-90) scale(0.14 -0.14)">
      <defs>
       <path id="DejaVuSans-32" d="M 1228 531 
L 3431 531 
L 3431 0 
L 469 0 
L 469 531 
Q 828 903 1448 1529 
Q 2069 2156 2228 2338 
Q 2531 2678 2651 2914 
Q 2772 3150 2772 3378 
Q 2772 3750 2511 3984 
Q 2250 4219 1831 4219 
Q 1534 4219 1204 4116 
Q 875 4013 500 3803 
L 500 4441 
Q 881 4594 1212 4672 
Q 1544 4750 1819 4750 
Q 2544 4750 2975 4387 
Q 3406 4025 3406 3419 
Q 3406 3131 3298 2873 
Q 3191 2616 2906 2266 
Q 2828 2175 2409 1742 
Q 1991 1309 1228 531 
z
" transform="scale(0.015625)"/>
      </defs>
      <use xlink:href="#DejaVuSans-4c"/>
      <use xlink:href="#DejaVuSans-61" transform="translate(55.712891 0)"/>
      <use xlink:href="#DejaVuSans-74" transform="translate(116.992188 0)"/>
      <use xlink:href="#DejaVuSans-65" transform="translate(156.201172 0)"/>
      <use xlink:href="#DejaVuSans-6e" transform="translate(217.724609 0)"/>
      <use xlink:href="#DejaVuSans-74" transform="translate(281.103516 0)"/>
      <use xlink:href="#DejaVuSans-20" transform="translate(320.3125 0)"/>
      <use xlink:href="#DejaVuSans-44" transform="translate(352.099609 0)"/>
      <use xlink:href="#DejaVuSans-69" transform="translate(429.101562 0)"/>
      <use xlink:href="#DejaVuSans-6d" transform="translate(456.884766 0)"/>
      <use xlink:href="#DejaVuSans-65" transform="translate(554.296875 0)"/>
      <use xlink:href="#DejaVuSans-6e" transform="translate(615.820312 0)"/>
      <use xlink:href="#DejaVuSans-73" transform="translate(679.199219 0)"/>
      <use xlink:href="#DejaVuSans-69" transform="translate(731.298828 0)"/>
      <use xlink:href="#DejaVuSans-6f" transform="translate(759.082031 0)"/>
      <use xlink:href="#DejaVuSans-6e" transform="translate(820.263672 0)"/>
      <use xlink:href="#DejaVuSans-20" transform="translate(883.642578 0)"/>
      <use xlink:href="#DejaVuSans-32" transform="translate(915.429688 0)"/>
     </g>
    </g>
   </g>
   <g id="text_3">
    <!-- Prior Distributions -->
    <g transform="translate(113.350625 19.3575) scale(0.16 -0.16)">
     <defs>
      <path id="DejaVuSans-50" d="M 1259 4147 
L 1259 2394 
L 2053 2394 
Q 2494 2394 2734 2622 
Q 2975 2850 2975 3272 
Q 2975 3691 2734 3919 
Q 2494 4147 2053 4147 
L 1259 4147 
z
M 628 4666 
L 2053 4666 
Q 2838 4666 3239 4311 
Q 3641 3956 3641 3272 
Q 3641 2581 3239 2228 
Q 2838 1875 2053 1875 
L 1259 1875 
L 1259 0 
L 628 0 
L 628 4666 
z
" transform="scale(0.015625)"/>
      <path id="DejaVuSans-72" d="M 2631 2963 
Q 2534 3019 2420 3045 
Q 2306 3072 2169 3072 
Q 1681 3072 1420 2755 
Q 1159 2438 1159 1844 
L 1159 0 
L 581 0 
L 581 3500 
L 1159 3500 
L 1159 2956 
Q 1341 3275 1631 3429 
Q 1922 3584 2338 3584 
Q 2397 3584 2469 3576 
Q 2541 3569 2628 3553 
L 2631 2963 
z
" transform="scale(0.015625)"/>
      <path id="DejaVuSans-62" d="M 3116 1747 
Q 3116 2381 2855 2742 
Q 2594 3103 2138 3103 
Q 1681 3103 1420 2742 
Q 1159 2381 1159 1747 
Q 1159 1113 1420 752 
Q 1681 391 2138 391 
Q 2594 391 2855 752 
Q 3116 1113 3116 1747 
z
M 1159 2969 
Q 1341 3281 1617 3432 
Q 1894 3584 2278 3584 
Q 2916 3584 3314 3078 
Q 3713 2572 3713 1747 
Q 3713 922 3314 415 
Q 2916 -91 2278 -91 
Q 1894 -91 1617 61 
Q 1341 213 1159 525 
L 1159 0 
L 581 0 
L 581 4863 
L 1159 4863 
L 1159 2969 
z
" transform="scale(0.015625)"/>
      <path id="DejaVuSans-75" d="M 544 1381 
L 544 3500 
L 1119 3500 
L 1119 1403 
Q 1119 906 1312 657 
Q 1506 409 1894 409 
Q 2359 409 2629 706 
Q 2900 1003 2900 1516 
L 2900 3500 
L 3475 3500 
L 3475 0 
L 2900 0 
L 2900 538 
Q 2691 219 2414 64 
Q 2138 -91 1772 -91 
Q 1169 -91 856 284 
Q 544 659 544 1381 
z
M 1991 3584 
L 1991 3584 
z
" transform="scale(0.015625)"/>
     </defs>
     <use xlink:href="#DejaVuSans-50"/>
     <use xlink:href="#DejaVuSans-72" transform="translate(58.552734 0)"/>
     <use xlink:href="#DejaVuSans-69" transform="translate(99.666016 0)"/>
     <use xlink:href="#DejaVuSans-6f" transform="translate(127.449219 0)"/>
     <use xlink:href="#DejaVuSans-72" transform="translate(188.630859 0)"/>
     <use xlink:href="#DejaVuSans-20" transform="translate(229.744141 0)"/>
     <use xlink:href="#DejaVuSans-44" transform="translate(261.53125 0)"/>
     <use xlink:href="#DejaVuSans-69" transform="translate(338.533203 0)"/>
     <use xlink:href="#DejaVuSans-73" transform="translate(366.316406 0)"/>
     <use xlink:href="#DejaVuSans-74" transform="translate(418.416016 0)"/>
     <use xlink:href="#DejaVuSans-72" transform="translate(457.625 0)"/>
     <use xlink:href="#DejaVuSans-69" transform="translate(498.738281 0)"/>
     <use xlink:href="#DejaVuSans-62" transform="translate(526.521484 0)"/>
     <use xlink:href="#DejaVuSans-75" transform="translate(589.998047 0)"/>
     <use xlink:href="#DejaVuSans-74" transform="translate(653.376953 0)"/>
     <use xlink:href="#DejaVuSans-69" transform="translate(692.585938 0)"/>
     <use xlink:href="#DejaVuSans-6f" transform="translate(720.369141 0)"/>
     <use xlink:href="#DejaVuSans-6e" transform="translate(781.550781 0)"/>
     <use xlink:href="#DejaVuSans-73" transform="translate(844.929688 0)"/>
    </g>
   </g>
   <g id="legend_1">
    <g id="patch_15">
     <path d="M 231.589375 124.668125 
L 337.069375 124.668125 
Q 339.469375 124.668125 339.469375 122.268125 
L 339.469375 33.7575 
Q 339.469375 31.3575 337.069375 31.3575 
L 231.589375 31.3575 
Q 229.189375 31.3575 229.189375 33.7575 
L 229.189375 122.268125 
Q 229.189375 124.668125 231.589375 124.668125 
z
" style="fill: #d3d3d3; stroke: #000000; stroke-linejoin: miter"/>
    </g>
    <g id="text_4">
     <!-- Priors -->
     <g transform="translate(270.237969 43.755937) scale(0.1 -0.1)">
      <use xlink:href="#DejaVuSans-50"/>
      <use xlink:href="#DejaVuSans-72" transform="translate(58.552734 0)"/>
      <use xlink:href="#DejaVuSans-69" transform="translate(99.666016 0)"/>
      <use xlink:href="#DejaVuSans-6f" transform="translate(127.449219 0)"/>
      <use xlink:href="#DejaVuSans-72" transform="translate(188.630859 0)"/>
      <use xlink:href="#DejaVuSans-73" transform="translate(229.744141 0)"/>
     </g>
    </g>
    <g id="patch_16">
     <path d="M 233.989375 60.95375 
L 257.989375 60.95375 
L 257.989375 52.55375 
L 233.989375 52.55375 
z
" style="fill: #1b9e77"/>
    </g>
    <g id="text_5">
     <!-- $\pi_{0_1}$, $\mu_{0_1}$, $\Sigma_{0_1}$ -->
     <g transform="translate(267.589375 60.95375) scale(0.12 -0.12)">
      <defs>
       <path id="DejaVuSans-Oblique-3c0" d="M 584 3500 
L 3938 3500 
L 3825 2925 
L 3384 2925 
L 2966 775 
Q 2922 550 2981 450 
Q 3038 353 3209 353 
Q 3256 353 3325 363 
Q 3397 369 3419 372 
L 3338 -44 
Q 3222 -84 3103 -103 
Q 2981 -122 2866 -122 
Q 2491 -122 2388 81 
Q 2284 288 2391 838 
L 2797 2925 
L 1506 2925 
L 938 0 
L 350 0 
L 919 2925 
L 472 2925 
L 584 3500 
z
" transform="scale(0.015625)"/>
       <path id="DejaVuSans-30" d="M 2034 4250 
Q 1547 4250 1301 3770 
Q 1056 3291 1056 2328 
Q 1056 1369 1301 889 
Q 1547 409 2034 409 
Q 2525 409 2770 889 
Q 3016 1369 3016 2328 
Q 3016 3291 2770 3770 
Q 2525 4250 2034 4250 
z
M 2034 4750 
Q 2819 4750 3233 4129 
Q 3647 3509 3647 2328 
Q 3647 1150 3233 529 
Q 2819 -91 2034 -91 
Q 1250 -91 836 529 
Q 422 1150 422 2328 
Q 422 3509 836 4129 
Q 1250 4750 2034 4750 
z
" transform="scale(0.015625)"/>
       <path id="DejaVuSans-2c" d="M 750 794 
L 1409 794 
L 1409 256 
L 897 -744 
L 494 -744 
L 750 256 
L 750 794 
z
" transform="scale(0.015625)"/>
       <path id="DejaVuSans-Oblique-3bc" d="M -84 -1331 
L 856 3500 
L 1434 3500 
L 1009 1322 
Q 997 1256 987 1175 
Q 978 1094 978 1013 
Q 978 722 1161 565 
Q 1344 409 1684 409 
Q 2147 409 2431 671 
Q 2716 934 2816 1459 
L 3213 3500 
L 3788 3500 
L 3266 809 
Q 3253 750 3248 706 
Q 3244 663 3244 628 
Q 3244 531 3283 486 
Q 3322 441 3406 441 
Q 3438 441 3492 456 
Q 3547 472 3647 513 
L 3559 50 
Q 3422 -19 3297 -55 
Q 3172 -91 3053 -91 
Q 2847 -91 2730 40 
Q 2613 172 2613 403 
Q 2438 153 2195 31 
Q 1953 -91 1625 -91 
Q 1334 -91 1117 43 
Q 900 178 831 397 
L 494 -1331 
L -84 -1331 
z
" transform="scale(0.015625)"/>
       <path id="DejaVuSans-3a3" d="M 1353 531 
L 3634 531 
L 3634 0 
L 628 0 
L 628 531 
L 2125 2481 
L 628 4134 
L 628 4666 
L 3578 4666 
L 3578 4134 
L 1353 4134 
L 2850 2494 
L 1353 531 
z
" transform="scale(0.015625)"/>
      </defs>
      <use xlink:href="#DejaVuSans-Oblique-3c0" transform="translate(0 0.09375)"/>
      <use xlink:href="#DejaVuSans-30" transform="translate(60.205078 -16.3125) scale(0.7)"/>
      <use xlink:href="#DejaVuSans-31" transform="translate(105.411133 -27.796875) scale(0.49)"/>
      <use xlink:href="#DejaVuSans-2c" transform="translate(141.234863 0.09375)"/>
      <use xlink:href="#DejaVuSans-20" transform="translate(173.021973 0.09375)"/>
      <use xlink:href="#DejaVuSans-Oblique-3bc" transform="translate(204.809082 0.09375)"/>
      <use xlink:href="#DejaVuSans-30" transform="translate(268.432129 -16.3125) scale(0.7)"/>
      <use xlink:href="#DejaVuSans-31" transform="translate(313.638184 -27.796875) scale(0.49)"/>
      <use xlink:href="#DejaVuSans-2c" transform="translate(349.461914 0.09375)"/>
      <use xlink:href="#DejaVuSans-20" transform="translate(381.249023 0.09375)"/>
      <use xlink:href="#DejaVuSans-3a3" transform="translate(413.036133 0.09375)"/>
      <use xlink:href="#DejaVuSans-30" transform="translate(477.176758 -16.3125) scale(0.7)"/>
      <use xlink:href="#DejaVuSans-31" transform="translate(522.382812 -27.796875) scale(0.49)"/>
     </g>
    </g>
    <g id="patch_17">
     <path d="M 233.989375 79.431875 
L 257.989375 79.431875 
L 257.989375 71.031875 
L 233.989375 71.031875 
z
" style="fill: #7570b3"/>
    </g>
    <g id="text_6">
     <!-- $\pi_{0_2}$, $\mu_{0_2}$, $\Sigma_{0_2}$ -->
     <g transform="translate(267.589375 79.431875) scale(0.12 -0.12)">
      <use xlink:href="#DejaVuSans-Oblique-3c0" transform="translate(0 0.09375)"/>
      <use xlink:href="#DejaVuSans-30" transform="translate(60.205078 -16.3125) scale(0.7)"/>
      <use xlink:href="#DejaVuSans-32" transform="translate(105.411133 -27.796875) scale(0.49)"/>
      <use xlink:href="#DejaVuSans-2c" transform="translate(141.234863 0.09375)"/>
      <use xlink:href="#DejaVuSans-20" transform="translate(173.021973 0.09375)"/>
      <use xlink:href="#DejaVuSans-Oblique-3bc" transform="translate(204.809082 0.09375)"/>
      <use xlink:href="#DejaVuSans-30" transform="translate(268.432129 -16.3125) scale(0.7)"/>
      <use xlink:href="#DejaVuSans-32" transform="translate(313.638184 -27.796875) scale(0.49)"/>
      <use xlink:href="#DejaVuSans-2c" transform="translate(349.461914 0.09375)"/>
      <use xlink:href="#DejaVuSans-20" transform="translate(381.249023 0.09375)"/>
      <use xlink:href="#DejaVuSans-3a3" transform="translate(413.036133 0.09375)"/>
      <use xlink:href="#DejaVuSans-30" transform="translate(477.176758 -16.3125) scale(0.7)"/>
      <use xlink:href="#DejaVuSans-32" transform="translate(522.382812 -27.796875) scale(0.49)"/>
     </g>
    </g>
    <g id="patch_18">
     <path d="M 233.989375 97.91 
L 257.989375 97.91 
L 257.989375 89.51 
L 233.989375 89.51 
z
" style="fill: #e6ab02"/>
    </g>
    <g id="text_7">
     <!-- $\pi_{0_3}$, $\mu_{0_3}$, $\Sigma_{0_3}$ -->
     <g transform="translate(267.589375 97.91) scale(0.12 -0.12)">
      <defs>
       <path id="DejaVuSans-33" d="M 2597 2516 
Q 3050 2419 3304 2112 
Q 3559 1806 3559 1356 
Q 3559 666 3084 287 
Q 2609 -91 1734 -91 
Q 1441 -91 1130 -33 
Q 819 25 488 141 
L 488 750 
Q 750 597 1062 519 
Q 1375 441 1716 441 
Q 2309 441 2620 675 
Q 2931 909 2931 1356 
Q 2931 1769 2642 2001 
Q 2353 2234 1838 2234 
L 1294 2234 
L 1294 2753 
L 1863 2753 
Q 2328 2753 2575 2939 
Q 2822 3125 2822 3475 
Q 2822 3834 2567 4026 
Q 2313 4219 1838 4219 
Q 1578 4219 1281 4162 
Q 984 4106 628 3988 
L 628 4550 
Q 988 4650 1302 4700 
Q 1616 4750 1894 4750 
Q 2613 4750 3031 4423 
Q 3450 4097 3450 3541 
Q 3450 3153 3228 2886 
Q 3006 2619 2597 2516 
z
" transform="scale(0.015625)"/>
      </defs>
      <use xlink:href="#DejaVuSans-Oblique-3c0" transform="translate(0 0.09375)"/>
      <use xlink:href="#DejaVuSans-30" transform="translate(60.205078 -16.3125) scale(0.7)"/>
      <use xlink:href="#DejaVuSans-33" transform="translate(105.411133 -27.796875) scale(0.49)"/>
      <use xlink:href="#DejaVuSans-2c" transform="translate(141.234863 0.09375)"/>
      <use xlink:href="#DejaVuSans-20" transform="translate(173.021973 0.09375)"/>
      <use xlink:href="#DejaVuSans-Oblique-3bc" transform="translate(204.809082 0.09375)"/>
      <use xlink:href="#DejaVuSans-30" transform="translate(268.432129 -16.3125) scale(0.7)"/>
      <use xlink:href="#DejaVuSans-33" transform="translate(313.638184 -27.796875) scale(0.49)"/>
      <use xlink:href="#DejaVuSans-2c" transform="translate(349.461914 0.09375)"/>
      <use xlink:href="#DejaVuSans-20" transform="translate(381.249023 0.09375)"/>
      <use xlink:href="#DejaVuSans-3a3" transform="translate(413.036133 0.09375)"/>
      <use xlink:href="#DejaVuSans-30" transform="translate(477.176758 -16.3125) scale(0.7)"/>
      <use xlink:href="#DejaVuSans-33" transform="translate(522.382812 -27.796875) scale(0.49)"/>
     </g>
    </g>
    <g id="patch_19">
     <path d="M 233.989375 116.508125 
L 257.989375 116.508125 
L 257.989375 108.108125 
L 233.989375 108.108125 
z
" style="fill: #666666"/>
    </g>
    <g id="text_8">
     <!-- $\pi_{0_4}$, $\mu_{0_4}$, $\Sigma_{0_4}$ -->
     <g transform="translate(267.589375 116.508125) scale(0.12 -0.12)">
      <defs>
       <path id="DejaVuSans-34" d="M 2419 4116 
L 825 1625 
L 2419 1625 
L 2419 4116 
z
M 2253 4666 
L 3047 4666 
L 3047 1625 
L 3713 1625 
L 3713 1100 
L 3047 1100 
L 3047 0 
L 2419 0 
L 2419 1100 
L 313 1100 
L 313 1709 
L 2253 4666 
z
" transform="scale(0.015625)"/>
      </defs>
      <use xlink:href="#DejaVuSans-Oblique-3c0" transform="translate(0 0.09375)"/>
      <use xlink:href="#DejaVuSans-30" transform="translate(60.205078 -16.3125) scale(0.7)"/>
      <use xlink:href="#DejaVuSans-34" transform="translate(105.411133 -27.796875) scale(0.49)"/>
      <use xlink:href="#DejaVuSans-2c" transform="translate(141.234863 0.09375)"/>
      <use xlink:href="#DejaVuSans-20" transform="translate(173.021973 0.09375)"/>
      <use xlink:href="#DejaVuSans-Oblique-3bc" transform="translate(204.809082 0.09375)"/>
      <use xlink:href="#DejaVuSans-30" transform="translate(268.432129 -16.3125) scale(0.7)"/>
      <use xlink:href="#DejaVuSans-34" transform="translate(313.638184 -27.796875) scale(0.49)"/>
      <use xlink:href="#DejaVuSans-2c" transform="translate(349.461914 0.09375)"/>
      <use xlink:href="#DejaVuSans-20" transform="translate(381.249023 0.09375)"/>
      <use xlink:href="#DejaVuSans-3a3" transform="translate(413.036133 0.09375)"/>
      <use xlink:href="#DejaVuSans-30" transform="translate(477.176758 -16.3125) scale(0.7)"/>
      <use xlink:href="#DejaVuSans-34" transform="translate(522.382812 -27.796875) scale(0.49)"/>
     </g>
    </g>
   </g>
  </g>
 </g>
 <defs>
  <clipPath id="p39c7a7f0ec">
   <rect x="24.749375" y="25.3575" width="320.72" height="270.146337"/>
  </clipPath>
 </defs>
</svg>
