<svg xmlns="http://www.w3.org/2000/svg" version="1.1" xmlns:xlink="http://www.w3.org/1999/xlink" xmlns:svgjs="http://svgjs.dev/svgjs" width="1500" height="986" viewBox="0 0 1500 986"><g transform="matrix(1,0,0,1,-1.0209790881995104,-0.022280428729459345)"><svg viewBox="0 0 377 248" data-background-color="#111111" preserveAspectRatio="xMidYMid meet" height="986" width="1500" xmlns="http://www.w3.org/2000/svg" xmlns:xlink="http://www.w3.org/1999/xlink"><g id="tight-bounds" transform="matrix(1,0,0,1,0.25660607750080544,0.597760890693479)"><svg viewBox="0 0 376.4867878449984 247.2" height="247.2" width="376.4867878449984"><g><svg viewBox="0 0 397.4975999999999 260.99563090233784" height="247.2" width="376.4867878449984"><g><rect width="397.4975999999999" height="5.563913099193168" x="0" y="138.40840792757928" fill="#ddd2c6" opacity="1" stroke-width="0" stroke="transparent" fill-opacity="1" class="rect-yte-0" data-fill-palette-color="primary" rx="1%" id="yte-0" data-palette-color="#ddd2c6"></rect></g><g><rect width="397.4975999999999" height="5.563913099193168" x="0" y="151.2549297953499" fill="#ddd2c6" opacity="1" stroke-width="0" stroke="transparent" fill-opacity="1" class="rect-yte-1" data-fill-palette-color="primary" rx="1%" id="yte-1" data-palette-color="#ddd2c6"></rect></g><g transform="matrix(1,0,0,1,0.9887999999999693,171.38406043169797)"><svg viewBox="0 0 395.52 89.61157047063992" height="89.61157047063992" width="395.52"><g id="textblocktransform"><svg viewBox="0 0 395.52 89.61157047063992" height="89.61157047063992" width="395.52" id="textblock"><g><svg viewBox="0 0 395.52 61.69715488721805" height="61.69715488721805" width="395.52"><g transform="matrix(1,0,0,1,0,0)"><svg width="395.52" viewBox="0.17 -37.43 243.51000000000002 37.99" height="61.69715488721805" data-palette-color="#ddd2c6"><path d="M15.53-32.37L15.53 0 11.28 0 11.28-32.37 0.17-32.37 0.17-36.11 26.64-36.11 26.64-32.37 15.53-32.37ZM32.22-13.33L32.22-13.33Q32.22-8.57 34.34-5.7 36.45-2.83 40.5-2.83L40.5-2.83Q44.5-2.83 46.54-5.69 48.58-8.54 48.58-13.38L48.58-13.38Q48.58-18.29 46.57-21.11 44.55-23.93 40.43-23.93L40.43-23.93Q36.42-23.93 34.32-21.04 32.22-18.16 32.22-13.33ZM52.81-13.4L52.81-13.4Q52.81-7.18 49.48-3.31 46.16 0.56 40.31 0.56L40.31 0.56Q34.67 0.56 31.33-3.34 28-7.25 28-13.38L28-13.38Q28-19.63 31.35-23.49 34.69-27.34 40.52-27.34L40.52-27.34Q46.26-27.34 49.53-23.47 52.81-19.6 52.81-13.4ZM70.58-27.03L70.58-27.03Q71.67-27.03 72.58-26.88L72.58-26.88 72.43-23.12Q71.31-23.32 70.48-23.32L70.48-23.32Q67.06-23.32 64.92-20.94 62.79-18.55 62.79-15.04L62.79-15.04 62.79 0 58.71 0Q58.69-24.66 58.69-26.78L58.69-26.78 62.08-26.78 62.47-21.97Q63.86-24.24 66.01-25.63 68.16-27.03 70.58-27.03ZM87.61 0.56L87.61 0.56Q81.71 0.56 78.37-3.27 75.04-7.1 75.04-13.31L75.04-13.31Q75.07-19.56 78.45-23.45 81.83-27.34 87.71-27.34L87.71-27.34Q89.79-27.34 91.73-26.83 93.67-26.32 94.79-25.49L94.79-25.49 93.67-22.31Q90.81-23.85 87.64-23.85L87.64-23.85Q83.76-23.85 81.5-21.02 79.24-18.19 79.24-13.28L79.24-13.28Q79.24-8.5 81.47-5.7 83.71-2.91 87.66-2.91L87.66-2.91Q90.81-2.91 94.11-4.61L94.11-4.61 94.62-1.37Q91.96 0.56 87.61 0.56ZM122.04 0L117.96 0 117.96-16.19Q117.96-20.21 116.68-22.05 115.4-23.88 112.2-23.88L112.2-23.88Q109.12-23.88 107.01-22.34 104.9-20.8 104.26-18.36L104.26-18.36Q104.04-16.53 104.04-14.28L104.04-14.28 104.04 0 99.97 0 99.97-37.18 104.04-37.43 104.04-26.54Q104.04-25.15 103.95-23.1L103.95-23.1Q107.39-27.34 113.08-27.34L113.08-27.34Q122.04-27.34 122.04-16.82L122.04-16.82 122.04 0ZM143.57 0.54L143.57 0.54Q139.44 0.54 136.16-0.84 132.87-2.22 130.74-4.7 128.6-7.18 127.47-10.57 126.33-13.96 126.33-18.02L126.33-18.02Q126.33-23.49 128.41-27.69 130.48-31.88 134.58-34.3 138.68-36.72 144.3-36.72L144.3-36.72Q150.52-36.72 155.24-33.89L155.24-33.89 153.63-30.4Q149.08-33.01 144.35-33.01L144.35-33.01Q141.05-33.01 138.45-31.87 135.85-30.74 134.2-28.72 132.56-26.71 131.69-23.99 130.82-21.26 130.82-18.02L130.82-18.02Q130.82-11.13 134.25-7.14 137.68-3.15 144.37-3.15L144.37-3.15Q148.18-3.15 152.11-4.69L152.11-4.69 152.11-14.99 143.59-14.99 143.74-18.68 156.07-18.68 156.07-2.17Q152.99-0.71 150.12-0.09 147.25 0.54 143.57 0.54ZM183.43-2.22L179.31-2.22 168.22-28 167.29-30.47 167.47-21.63 167.47 0 163.51 0 163.51-36.11 168.98-36.11 181.55-7.35 194-36.11 199.33-36.11 199.33 0 195.22 0 195.22-21.73 195.4-30.37 194.49-27.91 183.43-2.22ZM227.79-2.22L223.66-2.22 212.58-28 211.65-30.47 211.82-21.63 211.82 0 207.87 0 207.87-36.11 213.34-36.11 225.91-7.35 238.36-36.11 243.68-36.11 243.68 0 239.58 0 239.58-21.73 239.75-30.37 238.85-27.91 227.79-2.22Z" opacity="1" transform="matrix(1,0,0,1,0,0)" fill="#ddd2c6" class="wordmark-text-0" data-fill-palette-color="primary" id="text-0"></path></svg></g></svg></g><g transform="matrix(1,0,0,1,75.54432,76.26237242437294)"><svg viewBox="0 0 244.43135999999998 13.349198046266974" height="13.349198046266974" width="244.43135999999998"><g transform="matrix(1,0,0,1,0,0)"><svg width="244.43135999999998" viewBox="0.07 -37.43 909.63 49.69" height="13.349198046266974" data-palette-color="#ddd2c6"><path d="M10.16-14.99L21.78-14.99Q16.63-29.96 16.09-31.81L16.09-31.81Q16.09-31.81 10.16-14.99L10.16-14.99ZM31.71 0L27.37 0 23.14-11.45 8.74-11.45 4.37 0 0.07 0 13.94-36.18 18.26-36.18 31.71 0ZM64.25 0.54L64.25 0.54Q60.13 0.54 56.84-0.84 53.56-2.22 51.42-4.7 49.29-7.18 48.15-10.57 47.02-13.96 47.02-18.02L47.02-18.02Q47.02-23.49 49.09-27.69 51.17-31.88 55.27-34.3 59.37-36.72 64.99-36.72L64.99-36.72Q71.21-36.72 75.92-33.89L75.92-33.89 74.31-30.4Q69.77-33.01 65.03-33.01L65.03-33.01Q61.74-33.01 59.14-31.87 56.54-30.74 54.89-28.72 53.24-26.71 52.38-23.99 51.51-21.26 51.51-18.02L51.51-18.02Q51.51-11.13 54.94-7.14 58.37-3.15 65.06-3.15L65.06-3.15Q68.87-3.15 72.8-4.69L72.8-4.69 72.8-14.99 64.28-14.99 64.42-18.68 76.75-18.68 76.75-2.17Q73.68-0.71 70.81-0.09 67.94 0.54 64.25 0.54ZM91.15-2.73L91.15-2.73Q94.06-2.73 96.27-4.33 98.48-5.93 99.11-8.64L99.11-8.64 99.11-13.16Q98.99-13.16 97.64-13.04 96.28-12.92 95.87-12.89L95.87-12.89Q90.57-12.43 88.48-11.16 86.39-9.89 86.39-7.08L86.39-7.08Q86.39-4.93 87.66-3.83 88.93-2.73 91.15-2.73ZM103.19 0L100.02 0Q99.65-1.56 99.31-3.37L99.31-3.37Q97.09-1.15 95.13-0.29 93.18 0.56 90.54 0.56L90.54 0.56Q86.78 0.56 84.5-1.4 82.22-3.37 82.22-7.06L82.22-7.06Q82.22-11.16 85.33-13.13 88.44-15.11 94.3-15.6L94.3-15.6Q95.11-15.67 96.73-15.81 98.36-15.94 99.16-16.02L99.16-16.02 99.16-18.38Q99.16-21.22 97.84-22.58 96.53-23.95 93.69-23.95L93.69-23.95Q89.74-23.95 85.71-22L85.71-22Q85.59-22.29 85.08-23.69 84.56-25.1 84.54-25.15L84.54-25.15Q86.32-26.15 88.77-26.75 91.23-27.34 93.77-27.34L93.77-27.34Q98.77-27.34 100.98-25.16 103.19-22.97 103.19-17.72L103.19-17.72 103.19 0ZM109.29-8.94L109.29-8.94 109.29-26.78 113.39-26.78 113.39-8.89Q113.39-7.13 113.89-5.91 114.39-4.69 115.33-4.02 116.27-3.34 117.46-3.05 118.64-2.76 120.18-2.76L120.18-2.76Q123.35-2.76 125.12-4.15 126.89-5.54 126.89-8.89L126.89-8.89 126.89-26.78 131-26.78 131-8.94Q131-6.88 130.41-5.25 129.82-3.61 128.84-2.53 127.85-1.44 126.45-0.73 125.06-0.02 123.51 0.29 121.96 0.61 120.18 0.61L120.18 0.61Q118.42 0.61 116.86 0.29 115.3-0.02 113.89-0.74 112.49-1.46 111.48-2.55 110.46-3.64 109.88-5.27 109.29-6.91 109.29-8.94ZM145.06 0.56L145.06 0.56Q142.32 0.56 140.01-0.02 137.71-0.61 136.27-1.54L136.27-1.54 136.78-4.98Q140.86-2.81 144.79-2.81L144.79-2.81Q150.74-2.81 150.92-7.01L150.92-7.01Q150.92-8.79 149.65-9.81 148.38-10.84 144.67-12.11L144.67-12.11 142.64-12.82Q139.12-13.99 137.62-15.72 136.12-17.46 136.1-20.04L136.1-20.04Q136.1-23.19 138.62-25.27 141.15-27.34 145.54-27.34L145.54-27.34Q150.09-27.34 153.82-25.59L153.82-25.59 152.62-22.46Q148.84-24.02 145.54-24.02L145.54-24.02Q142.98-24.02 141.53-23.01 140.08-22 140.08-20.17L140.08-20.17Q140.08-18.6 141.13-17.77 142.18-16.94 145.32-15.87L145.32-15.87Q146.13-15.58 147.35-15.19L147.35-15.19Q151.4-13.87 153.09-12.07 154.77-10.28 154.77-7.23L154.77-7.23Q154.72-3.52 152.11-1.48 149.5 0.56 145.06 0.56ZM168.32 0.56L168.32 0.56Q165.59 0.56 163.28-0.02 160.97-0.61 159.53-1.54L159.53-1.54 160.04-4.98Q164.12-2.81 168.05-2.81L168.05-2.81Q174.01-2.81 174.18-7.01L174.18-7.01Q174.18-8.79 172.91-9.81 171.64-10.84 167.93-12.11L167.93-12.11 165.9-12.82Q162.39-13.99 160.89-15.72 159.38-17.46 159.36-20.04L159.36-20.04Q159.36-23.19 161.89-25.27 164.41-27.34 168.81-27.34L168.81-27.34Q173.35-27.34 177.08-25.59L177.08-25.59 175.89-22.46Q172.1-24.02 168.81-24.02L168.81-24.02Q166.24-24.02 164.79-23.01 163.34-22 163.34-20.17L163.34-20.17Q163.34-18.6 164.39-17.77 165.44-16.94 168.59-15.87L168.59-15.87Q169.39-15.58 170.61-15.19L170.61-15.19Q174.67-13.87 176.35-12.07 178.04-10.28 178.04-7.23L178.04-7.23Q177.99-3.52 175.38-1.48 172.76 0.56 168.32 0.56ZM184.31-26.78L188.41-26.78 188.41 0 184.31 0 184.31-26.78ZM184.31-36.52L188.41-36.52 188.41-31.69 184.31-31.69 184.31-36.52ZM203.81-2.73L203.81-2.73Q206.72-2.73 208.93-4.33 211.14-5.93 211.77-8.64L211.77-8.64 211.77-13.16Q211.65-13.16 210.29-13.04 208.94-12.92 208.52-12.89L208.52-12.89Q203.23-12.43 201.14-11.16 199.05-9.89 199.05-7.08L199.05-7.08Q199.05-4.93 200.32-3.83 201.59-2.73 203.81-2.73ZM215.85 0L212.68 0Q212.31-1.56 211.97-3.37L211.97-3.37Q209.75-1.15 207.79-0.29 205.84 0.56 203.2 0.56L203.2 0.56Q199.44 0.56 197.16-1.4 194.88-3.37 194.88-7.06L194.88-7.06Q194.88-11.16 197.99-13.13 201.1-15.11 206.96-15.6L206.96-15.6Q207.77-15.67 209.39-15.81 211.02-15.94 211.82-16.02L211.82-16.02 211.82-18.38Q211.82-21.22 210.5-22.58 209.18-23.95 206.35-23.95L206.35-23.95Q202.4-23.95 198.37-22L198.37-22Q198.25-22.29 197.73-23.69 197.22-25.1 197.2-25.15L197.2-25.15Q198.98-26.15 201.43-26.75 203.89-27.34 206.43-27.34L206.43-27.34Q211.43-27.34 213.64-25.16 215.85-22.97 215.85-17.72L215.85-17.72 215.85 0ZM227 0L222.88 0 222.88-26.78 226.3-26.78 226.81-22.95Q228.4-24.93 230.78-26.14 233.16-27.34 235.92-27.34L235.92-27.34Q240.55-27.34 242.78-24.74 245-22.14 245-16.75L245-16.75 245 0 240.92 0Q240.92-16.11 240.9-17.26L240.9-17.26Q240.8-20.68 239.52-22.27 238.23-23.85 235.23-23.85L235.23-23.85Q232.08-23.85 229.98-22.34 227.88-20.83 227.25-18.41L227.25-18.41Q227-16.77 227-14.65L227-14.65 227 0ZM284.96-2.22L280.83-2.22 269.75-28 268.82-30.47 268.99-21.63 268.99 0 265.04 0 265.04-36.11 270.5-36.11 283.08-7.35 295.53-36.11 300.85-36.11 300.85 0 296.75 0 296.75-21.73 296.92-30.37 296.02-27.91 284.96-2.22ZM309.32-26.78L313.42-26.78 313.42 0 309.32 0 309.32-26.78ZM309.32-36.52L313.42-36.52 313.42-31.69 309.32-31.69 309.32-36.52ZM318.35 0L328.17-13.62 318.72-26.78 323.38-26.78 330.53-16.58 337.71-26.78 342.37-26.78 332.9-13.57 342.62 0 338.1 0 330.56-10.77 323.01 0 318.35 0ZM355.43 0.49L355.43 0.49Q351.48 0.49 349.82-1.44 348.16-3.37 348.06-7.67L348.06-7.67 348.06-23.75 344.08-23.75 344.25-26.44 348.04-26.78 349.43-32.91 352.11-33.01 352.11-26.78 359.56-26.78 359.56-23.75 352.11-23.75 352.11-8.4Q352.11-5.35 353.04-4.1 353.97-2.86 356.22-2.86L356.22-2.86Q357.02-2.86 359.71-3.25L359.71-3.25 359.88-0.02Q356.97 0.49 355.43 0.49ZM363.29-8.94L363.29-8.94 363.29-26.78 367.39-26.78 367.39-8.89Q367.39-7.13 367.89-5.91 368.4-4.69 369.34-4.02 370.28-3.34 371.46-3.05 372.64-2.76 374.18-2.76L374.18-2.76Q377.36-2.76 379.13-4.15 380.9-5.54 380.9-8.89L380.9-8.89 380.9-26.78 385-26.78 385-8.94Q385-6.88 384.41-5.25 383.82-3.61 382.84-2.53 381.85-1.44 380.46-0.73 379.06-0.02 377.51 0.29 375.96 0.61 374.18 0.61L374.18 0.61Q372.42 0.61 370.86 0.29 369.3-0.02 367.89-0.74 366.49-1.46 365.48-2.55 364.46-3.64 363.88-5.27 363.29-6.91 363.29-8.94ZM403.09-27.03L403.09-27.03Q404.18-27.03 405.09-26.88L405.09-26.88 404.94-23.12Q403.82-23.32 402.99-23.32L402.99-23.32Q399.57-23.32 397.43-20.94 395.3-18.55 395.3-15.04L395.3-15.04 395.3 0 391.22 0Q391.2-24.66 391.2-26.78L391.2-26.78 394.59-26.78 394.98-21.97Q396.37-24.24 398.52-25.63 400.67-27.03 403.09-27.03ZM424.24-21.84Q422.44-23.97 419.32-23.97 416.19-23.97 414.22-21.77 412.24-19.56 411.9-15.72L411.9-15.72 426.03-15.72Q426.03-19.7 424.24-21.84ZM420.12 0.56L420.12 0.56Q414.29 0.56 410.93-3.15 407.57-6.86 407.57-13.31L407.57-13.31Q407.57-19.53 410.82-23.4 414.07-27.27 419.37-27.34L419.37-27.34Q424.35-27.34 427.26-23.94 430.18-20.53 430.18-14.84L430.18-14.84Q430.18-14.55 430.17-13.77 430.16-12.99 430.16-12.65L430.16-12.65 411.77-12.65Q411.85-8.08 414.13-5.53 416.41-2.98 420.27-2.98L420.27-2.98Q424.52-2.98 428.79-5.22L428.79-5.22 429.43-1.93Q425.35 0.56 420.12 0.56ZM469.02-2.22L464.89-2.22 453.81-28 452.88-30.47 453.05-21.63 453.05 0 449.1 0 449.1-36.11 454.57-36.11 467.14-7.35 479.59-36.11 484.91-36.11 484.91 0 480.81 0 480.81-21.73 480.98-30.37 480.08-27.91 469.02-2.22ZM495.65-13.33L495.65-13.33Q495.65-8.57 497.76-5.7 499.88-2.83 503.93-2.83L503.93-2.83Q507.93-2.83 509.97-5.69 512.01-8.54 512.01-13.38L512.01-13.38Q512.01-18.29 510-21.11 507.98-23.93 503.86-23.93L503.86-23.93Q499.85-23.93 497.75-21.04 495.65-18.16 495.65-13.33ZM516.23-13.4L516.23-13.4Q516.23-7.18 512.91-3.31 509.59 0.56 503.73 0.56L503.73 0.56Q498.09 0.56 494.76-3.34 491.43-7.25 491.43-13.38L491.43-13.38Q491.43-19.63 494.77-23.49 498.12-27.34 503.95-27.34L503.95-27.34Q509.69-27.34 512.96-23.47 516.23-19.6 516.23-13.4ZM532.44-2.95L532.44-2.95Q536.47-2.95 538.44-5.54 540.4-8.13 540.4-12.94L540.4-12.94Q540.4-18.36 538.51-21.11 536.62-23.85 532.39-23.85L532.39-23.85Q530.51-23.85 529.07-23.05 527.63-22.24 526.75-20.8 525.88-19.36 525.42-17.49 524.97-15.63 524.97-13.4L524.97-13.4Q524.97-10.28 525.74-7.98 526.51-5.69 528.22-4.32 529.93-2.95 532.44-2.95ZM541.01 0L540.47-3.88Q539.16-1.86 536.96-0.66 534.76 0.54 532.05 0.54L532.05 0.54Q526.75 0.54 523.75-3.23 520.75-7.01 520.75-13.5L520.75-13.5Q520.75-19.7 523.8-23.52 526.85-27.34 531.98-27.34L531.98-27.34Q534.64-27.34 537-26.18 539.35-25.02 540.52-23.07L540.52-23.07 540.45-25.39 540.45-37.18 544.48-37.43 544.48 0 541.01 0ZM567-21.84Q565.2-23.97 562.08-23.97 558.95-23.97 556.98-21.77 555-19.56 554.66-15.72L554.66-15.72 568.79-15.72Q568.79-19.7 567-21.84ZM562.88 0.56L562.88 0.56Q557.05 0.56 553.69-3.15 550.34-6.86 550.34-13.31L550.34-13.31Q550.34-19.53 553.58-23.4 556.83-27.27 562.13-27.34L562.13-27.34Q567.11-27.34 570.03-23.94 572.94-20.53 572.94-14.84L572.94-14.84Q572.94-14.55 572.93-13.77 572.92-12.99 572.92-12.65L572.92-12.65 554.53-12.65Q554.61-8.08 556.89-5.53 559.17-2.98 563.03-2.98L563.03-2.98Q567.28-2.98 571.55-5.22L571.55-5.22 572.19-1.93Q568.11 0.56 562.88 0.56ZM585.81 0.49L585.81 0.49Q581.9 0.49 580.28-1.61 578.65-3.71 578.65-8.91L578.65-8.91 578.65-37.18 582.71-37.43 582.71-10.52Q582.71-8.86 582.74-7.86 582.78-6.86 582.93-5.9 583.07-4.93 583.32-4.44 583.56-3.96 584.02-3.55 584.49-3.15 585.14-3.02 585.78-2.88 586.73-2.88L586.73-2.88Q587.52-2.88 589.81-3.17L589.81-3.17 590.03 0.07Q587.52 0.49 585.81 0.49ZM604.04-8.94L604.04-8.94 604.04-26.78 608.14-26.78 608.14-8.89Q608.14-7.13 608.64-5.91 609.14-4.69 610.08-4.02 611.02-3.34 612.21-3.05 613.39-2.76 614.93-2.76L614.93-2.76Q618.1-2.76 619.87-4.15 621.64-5.54 621.64-8.89L621.64-8.89 621.64-26.78 625.74-26.78 625.74-8.94Q625.74-6.88 625.16-5.25 624.57-3.61 623.58-2.53 622.59-1.44 621.2-0.73 619.81-0.02 618.26 0.29 616.71 0.61 614.93 0.61L614.93 0.61Q613.17 0.61 611.61 0.29 610.04-0.02 608.64-0.74 607.24-1.46 606.22-2.55 605.21-3.64 604.62-5.27 604.04-6.91 604.04-8.94ZM639.8 0.56L639.8 0.56Q637.07 0.56 634.76-0.02 632.45-0.61 631.01-1.54L631.01-1.54 631.53-4.98Q635.6-2.81 639.53-2.81L639.53-2.81Q645.49-2.81 645.66-7.01L645.66-7.01Q645.66-8.79 644.39-9.81 643.12-10.84 639.41-12.11L639.41-12.11 637.39-12.82Q633.87-13.99 632.37-15.72 630.87-17.46 630.84-20.04L630.84-20.04Q630.84-23.19 633.37-25.27 635.9-27.34 640.29-27.34L640.29-27.34Q644.83-27.34 648.57-25.59L648.57-25.59 647.37-22.46Q643.59-24.02 640.29-24.02L640.29-24.02Q637.73-24.02 636.28-23.01 634.82-22 634.82-20.17L634.82-20.17Q634.82-18.6 635.87-17.77 636.92-16.94 640.07-15.87L640.07-15.87Q640.88-15.58 642.1-15.19L642.1-15.19Q646.15-13.87 647.84-12.07 649.52-10.28 649.52-7.23L649.52-7.23Q649.47-3.52 646.86-1.48 644.25 0.56 639.8 0.56ZM655.79-26.78L659.89-26.78 659.89 0 655.79 0 655.79-26.78ZM655.79-36.52L659.89-36.52 659.89-31.69 655.79-31.69 655.79-36.52ZM671.68 0L667.56 0 667.56-26.78 670.97-26.78 671.49-22.95Q673.07-24.93 675.45-26.14 677.84-27.34 680.59-27.34L680.59-27.34Q685.23-27.34 687.45-24.74 689.68-22.14 689.68-16.75L689.68-16.75 689.68 0 685.6 0Q685.6-16.11 685.57-17.26L685.57-17.26Q685.48-20.68 684.2-22.27 682.91-23.85 679.91-23.85L679.91-23.85Q676.76-23.85 674.66-22.34 672.56-20.83 671.93-18.41L671.93-18.41Q671.68-16.77 671.68-14.65L671.68-14.65 671.68 0ZM706.86-3.49L706.86-3.49Q708.94-3.49 710.5-4.22 712.06-4.96 712.94-6.25 713.82-7.54 714.25-9.13 714.67-10.72 714.67-12.6L714.67-12.6 714.67-14.58Q714.67-16.53 714.23-18.18 713.79-19.82 712.88-21.13 711.96-22.44 710.44-23.17 708.91-23.9 706.89-23.9L706.89-23.9Q705.2-23.9 703.82-23.27 702.44-22.63 701.55-21.59 700.66-20.56 700.04-19.18 699.41-17.8 699.15-16.38 698.88-14.97 698.88-13.53L698.88-13.53Q698.88-12.11 699.17-10.72 699.46-9.33 700.1-8.01 700.73-6.69 701.64-5.7 702.54-4.71 703.89-4.1 705.25-3.49 706.86-3.49ZM705.1 12.26L700.59 12.26 700.22 8.57 705.2 8.57Q707.28 8.57 708.81 8.28 710.35 7.98 711.38 7.31 712.4 6.64 713.04 5.82 713.67 5 714 3.7 714.33 2.39 714.44 1.11 714.55-0.17 714.55-2.03L714.55-2.03 714.55-4.39Q713.09-2.29 711.16-1.16 709.23-0.02 706.25-0.02L706.25-0.02Q703.96-0.02 702.01-0.82 700.07-1.61 698.74-2.93 697.41-4.25 696.47-5.98 695.53-7.71 695.11-9.57 694.68-11.43 694.68-13.31L694.68-13.31Q694.68-16.24 695.4-18.73 696.12-21.22 697.53-23.17 698.95-25.12 701.26-26.23 703.57-27.34 706.54-27.34L706.54-27.34Q709.18-27.34 711.15-26.33 713.11-25.32 714.67-23.22L714.67-23.22 714.67-26.78 718.65-26.78 718.65-1.93Q718.65-0.22 718.57 1.06 718.48 2.34 718.15 3.91 717.82 5.47 717.26 6.59 716.7 7.71 715.69 8.85 714.67 9.99 713.27 10.68 711.87 11.38 709.79 11.82 707.72 12.26 705.1 12.26L705.1 12.26ZM742.31-15.58L742.31 0 737.98 0 737.98-36.52 749.75-36.52Q752.44-36.52 754.61-35.96 756.78-35.4 758.47-34.25 760.15-33.11 761.08-31.18 762.01-29.25 762.01-26.68L762.01-26.68Q762.01-24.56 761.62-22.89 761.23-21.22 760.27-19.75 759.32-18.29 757.78-17.32 756.25-16.36 753.84-15.81 751.44-15.26 748.26-15.26L748.26-15.26Q745.75-15.26 742.31-15.58L742.31-15.58ZM748.68-18.99L748.68-18.99Q751.07-18.99 752.78-19.46 754.49-19.92 755.4-20.61 756.32-21.29 756.84-22.39 757.37-23.49 757.49-24.4 757.61-25.32 757.61-26.61L757.61-26.61Q757.61-29.71 755.53-31.18 753.44-32.64 749.85-32.64L749.85-32.64 742.31-32.64 742.31-19.04Q747.02-18.99 748.68-18.99ZM773.38-0.2L762.79-26.78 767.11-26.78 775.55-4.49 783.07-26.78 787.4-26.78Q776.56 3.05 776.19 3.98L776.19 3.98Q774.5 8.2 772.11 10.17 769.72 12.13 765.81 12.13L765.81 12.13Q764.64 12.13 763.35 11.94L763.35 11.94 763.1 8.47Q764.47 8.57 765.15 8.57L765.15 8.57Q767.91 8.57 769.34 7.56 770.77 6.54 771.89 3.76L771.89 3.76Q772.89 1.2 773.38-0.2L773.38-0.2ZM803.19-32.37L803.19 0 798.94 0 798.94-32.37 787.83-32.37 787.83-36.11 814.3-36.11 814.3-32.37 803.19-32.37ZM819.89-13.33L819.89-13.33Q819.89-8.57 822-5.7 824.11-2.83 828.16-2.83L828.16-2.83Q832.17-2.83 834.2-5.69 836.24-8.54 836.24-13.38L836.24-13.38Q836.24-18.29 834.23-21.11 832.21-23.93 828.09-23.93L828.09-23.93Q824.08-23.93 821.99-21.04 819.89-18.16 819.89-13.33ZM840.47-13.4L840.47-13.4Q840.47-7.18 837.15-3.31 833.83 0.56 827.97 0.56L827.97 0.56Q822.33 0.56 818.99-3.34 815.66-7.25 815.66-13.38L815.66-13.38Q815.66-19.63 819.01-23.49 822.35-27.34 828.19-27.34L828.19-27.34Q833.92-27.34 837.2-23.47 840.47-19.6 840.47-13.4ZM858.24-27.03L858.24-27.03Q859.34-27.03 860.24-26.88L860.24-26.88 860.09-23.12Q858.97-23.32 858.14-23.32L858.14-23.32Q854.72-23.32 852.59-20.94 850.45-18.55 850.45-15.04L850.45-15.04 850.45 0 846.37 0Q846.35-24.66 846.35-26.78L846.35-26.78 849.74-26.78 850.13-21.97Q851.52-24.24 853.67-25.63 855.82-27.03 858.24-27.03ZM875.28 0.56L875.28 0.56Q869.37 0.56 866.04-3.27 862.7-7.1 862.7-13.31L862.7-13.31Q862.73-19.56 866.11-23.45 869.49-27.34 875.37-27.34L875.37-27.34Q877.45-27.34 879.39-26.83 881.33-26.32 882.45-25.49L882.45-25.49 881.33-22.31Q878.47-23.85 875.3-23.85L875.3-23.85Q871.42-23.85 869.16-21.02 866.9-18.19 866.9-13.28L866.9-13.28Q866.9-8.5 869.14-5.7 871.37-2.91 875.33-2.91L875.33-2.91Q878.47-2.91 881.77-4.61L881.77-4.61 882.28-1.37Q879.62 0.56 875.28 0.56ZM909.7 0L905.62 0 905.62-16.19Q905.62-20.21 904.34-22.05 903.06-23.88 899.86-23.88L899.86-23.88Q896.78-23.88 894.67-22.34 892.56-20.8 891.92-18.36L891.92-18.36Q891.7-16.53 891.7-14.28L891.7-14.28 891.7 0 887.63 0 887.63-37.18 891.7-37.43 891.7-26.54Q891.7-25.15 891.61-23.1L891.61-23.1Q895.05-27.34 900.74-27.34L900.74-27.34Q909.7-27.34 909.7-16.82L909.7-16.82 909.7 0Z" opacity="1" transform="matrix(1,0,0,1,0,0)" fill="#ddd2c6" class="slogan-text-1" data-fill-palette-color="secondary" id="text-1"></path></svg></g></svg></g></svg></g></svg></g><g transform="matrix(1,0,0,1,128.5425572379872,0)"><svg viewBox="0 0 140.4124855240255 123.84319039042438" height="123.84319039042438" width="140.4124855240255"><g><svg xmlns="http://www.w3.org/2000/svg" xmlns:svg="http://www.w3.org/2000/svg" viewBox="0.6616223392 2.1437725768614735 25.134972253799997 22.168934213138527" version="1.1" x="0" y="0" height="123.84319039042438" width="140.4124855240255" class="icon-icon-0" data-fill-palette-color="accent" id="icon-0"><g fill="#c9a07a" data-fill-palette-color="accent"><path transform="matrix(1.0809346,0,0,1.0262175,-0.15124048,-1.4535622)" d="M12.237 3.506A0.7 0.7 0 0 0 11.98 3.567 0.24 0.258 0 0 0 11.928 3.6C11.877 3.64 11.834 3.689 11.788 3.734H11.169V4.756C11.029 5.117 10.928 5.487 10.814 5.808A0.24 0.258 0 0 0 10.81 5.825 61 61 0 0 0 10.12 8.583H9.23V12.772C8.9 14.382 8.568 15.987 8.17 17.57H7.293V20.587C7.042 21.314 6.756 22.018 6.378 22.644H5.354V23.871C5.314 23.901 5.274 23.926 5.234 23.953H3.416V24.254H1.48V24.599H0.752V25.108H24.005V24.599H23.037V24.253H21.099V23.954H19.282L19.161 23.865V22.645H18.135A11 11 0 0 1 17.349 20.95C17.304 20.825 17.266 20.697 17.223 20.571V17.571H16.344C15.946 15.99 15.614 14.384 15.285 12.775V8.583H14.398C14.122 7.308 13.813 6.033 13.348 4.806V3.734H12.75A0.8 0.8 0 0 0 12.48 3.546 0.6 0.6 0 0 0 12.237 3.506M11.419 3.98H11.577C11.52 4.056 11.467 4.136 11.419 4.219zM12.954 3.979H13.096V4.223A3 3 0 0 0 12.954 3.98M12.26 4.02C12.28 4.02 12.298 4.024 12.318 4.03A0.45 0.45 0 0 1 12.482 4.168C12.602 4.31 12.714 4.545 12.803 4.73 12.908 4.993 13.005 5.26 13.096 5.527V24.863H11.419V5.52C11.612 4.933 11.803 4.372 12.193 4.035A0.2 0.2 0 0 1 12.26 4.02M13.347 6.328A34 34 0 0 1 13.904 8.583H13.347zM11.167 6.358V8.583H10.616C10.787 7.837 10.97 7.095 11.168 6.358M9.482 8.828H10.064C9.858 9.738 9.669 10.652 9.48 11.567ZM10.558 8.827H11.158V24.862H9.481V13.94C9.836 12.23 10.174 10.52 10.558 8.827M13.357 8.827H13.958C14.107 9.517 14.252 10.21 14.406 10.902 14.62 11.905 14.826 12.914 15.034 13.924V24.863H13.357zM14.452 8.827H15.034V11.563C14.98 11.304 14.928 11.044 14.872 10.785A0.24 0.258 0 0 0 14.872 10.783C14.728 10.137 14.592 9.483 14.452 8.827M15.285 15.108A73 73 0 0 0 15.846 17.57H15.286zM9.23 15.12V17.57H8.666A81 81 0 0 0 9.23 15.12M7.544 17.817H8.107C7.979 18.317 7.847 18.814 7.704 19.309 7.652 19.475 7.596 19.642 7.544 19.809zM8.606 17.817H9.22V24.863H7.544V21.329C7.777 20.709 7.969 20.077 8.16 19.469A0.24 0.258 0 0 0 8.16 19.465 51 51 0 0 0 8.606 17.817M15.295 17.817H15.91C16.195 18.937 16.515 20.047 16.902 21.137A0.24 0.258 0 0 0 16.904 21.142C16.925 21.2 16.949 21.258 16.972 21.315V24.863H15.295zM16.408 17.817H16.972V19.813A41 41 0 0 1 16.408 17.817M17.223 21.927C17.328 22.169 17.442 22.409 17.568 22.645H17.223zM7.292 21.947V22.643H6.945C7.07 22.417 7.187 22.184 7.292 21.946M5.606 22.89H6.22A5 5 0 0 1 5.606 23.648ZM6.802 22.89H7.282V24.863H5.606V24.306C5.69 24.243 5.776 24.179 5.859 24.104A0.24 0.258 0 0 0 5.864 24.1C6.237 23.74 6.54 23.33 6.802 22.891M17.23 22.893H17.71C18.029 23.44 18.416 23.943 18.913 24.313V24.86H17.229zM18.286 22.893H18.913V23.647A4.3 4.3 0 0 1 18.286 22.893M3.664 24.2H4.772C4.425 24.351 4.052 24.44 3.664 24.491zM19.724 24.201H20.85V24.486A4.7 4.7 0 0 1 19.863 24.261C19.815 24.243 19.77 24.221 19.723 24.201M5.348 24.477V24.859H4.472C4.775 24.772 5.068 24.646 5.348 24.477M19.167 24.486C19.335 24.588 19.514 24.676 19.705 24.748A0.24 0.258 0 0 0 19.707 24.748C19.829 24.795 19.953 24.827 20.077 24.86H19.167zM1.727 24.502H3.41V24.52C2.858 24.575 2.286 24.576 1.727 24.593zM21.105 24.502H22.788V24.593C22.221 24.578 21.655 24.573 21.105 24.52z" fill="#c9a07a" fill-rule="evenodd" color="#c9a07a" data-fill-palette-color="accent"></path></g></svg></g></svg></g><g></g></svg></g><defs></defs></svg><rect width="376.4867878449984" height="247.2" fill="none" stroke="none" visibility="hidden"></rect></g></svg></g></svg>